<svg width="300" height="601" viewBox="0 0 300 601" fill="none" xmlns="http://www.w3.org/2000/svg">
<g filter="url(#filter0_ii_2_1678)">
<path d="M3.54191 30C3.54191 13.4314 16.9734 0 33.5419 0H266.104C282.672 0 296.104 13.4315 296.104 30V130.874C296.104 131.95 296.976 132.822 298.052 132.822C299.128 132.822 300 133.694 300 134.77V186.836C300 187.912 299.128 188.784 298.052 188.784C296.976 188.784 296.104 189.656 296.104 190.732V570.708C296.104 587.277 282.672 600.708 266.104 600.708H33.542C16.9734 600.708 3.54191 587.277 3.54191 570.708V215.702C3.54191 214.724 2.74903 213.932 1.77096 213.932C0.792884 213.932 0 213.139 0 212.161V168.241C0 167.263 0.792884 166.47 1.77096 166.47C2.74903 166.47 3.54191 165.677 3.54191 164.699V159.386C3.54191 158.408 2.74903 157.615 1.77096 157.615C0.792884 157.615 0 156.822 0 155.844V110.508C0 109.53 0.792884 108.737 1.77096 108.737C2.74903 108.737 3.54191 107.944 3.54191 106.966V30Z" fill="white"/>
</g>
<path d="M4.01358 30C4.01358 13.6919 17.2339 0.471665 33.5419 0.471665H266.104C282.412 0.471665 295.632 13.692 295.632 30V130.874C295.632 132.21 296.716 133.293 298.052 133.293C298.867 133.293 299.528 133.954 299.528 134.77V186.836C299.528 187.651 298.867 188.312 298.052 188.312C296.716 188.312 295.632 189.396 295.632 190.732V570.708C295.632 587.016 282.412 600.237 266.104 600.237H33.542C17.2339 600.237 4.01358 587.016 4.01358 570.708V215.702C4.01358 214.464 3.00952 213.46 1.77096 213.46C1.05338 213.46 0.471665 212.878 0.471665 212.161V168.241C0.471665 167.523 1.05338 166.942 1.77096 166.942C3.00952 166.942 4.01358 165.938 4.01358 164.699V159.386C4.01358 158.148 3.00953 157.143 1.77096 157.143C1.05337 157.143 0.471665 156.562 0.471665 155.844V110.508C0.471665 109.79 1.05338 109.208 1.77096 109.208C3.00952 109.208 4.01358 108.204 4.01358 106.966V30Z" stroke="#EEEEEE" stroke-width="0.943329"/>
<path d="M43.1948 22.4314H74.266V25.3882C74.266 33.2228 80.6173 39.5739 88.452 39.5739H211.881C219.715 39.5739 226.066 33.2228 226.066 25.3882V22.4314H256.452C268.31 22.4314 277.923 32.0442 277.923 43.9021V556.806C277.923 568.664 268.31 578.277 256.452 578.277H43.1948C31.3366 578.277 21.7236 568.664 21.7236 556.806V43.9021C21.7236 32.0442 31.3366 22.4314 43.1948 22.4314Z" fill="#FEFEFE" stroke="#E6E6E6" stroke-width="0.943329"/>
<rect opacity="0.4" x="122.551" y="23.3767" width="60.9209" height="5.66706" rx="2.83353" fill="#333333"/>
<rect opacity="0.5" x="193.391" y="19.835" width="12.7509" height="12.7509" rx="6.37544" fill="#313131"/>
<rect opacity="0.5" x="196.223" y="22.6687" width="7.08383" height="7.08383" rx="3.54191" fill="white"/>
<rect opacity="0.5" x="88.5488" y="23.3767" width="5.66706" height="5.66706" rx="2.83353" fill="#333333"/>
<defs>
<filter id="filter0_ii_2_1678" x="-9.43329" y="-18.8666" width="318.867" height="638.442" filterUnits="userSpaceOnUse" color-interpolation-filters="sRGB">
<feFlood flood-opacity="0" result="BackgroundImageFix"/>
<feBlend mode="normal" in="SourceGraphic" in2="BackgroundImageFix" result="shape"/>
<feColorMatrix in="SourceAlpha" type="matrix" values="0 0 0 0 0 0 0 0 0 0 0 0 0 0 0 0 0 0 127 0" result="hardAlpha"/>
<feOffset dx="9.43329" dy="18.8666"/>
<feGaussianBlur stdDeviation="14.1499"/>
<feComposite in2="hardAlpha" operator="arithmetic" k2="-1" k3="1"/>
<feColorMatrix type="matrix" values="0 0 0 0 0 0 0 0 0 0 0 0 0 0 0 0 0 0 0.1 0"/>
<feBlend mode="normal" in2="shape" result="effect1_innerShadow_2_1678"/>
<feColorMatrix in="SourceAlpha" type="matrix" values="0 0 0 0 0 0 0 0 0 0 0 0 0 0 0 0 0 0 127 0" result="hardAlpha"/>
<feOffset dx="-9.43329" dy="-18.8666"/>
<feGaussianBlur stdDeviation="14.1499"/>
<feComposite in2="hardAlpha" operator="arithmetic" k2="-1" k3="1"/>
<feColorMatrix type="matrix" values="0 0 0 0 0 0 0 0 0 0 0 0 0 0 0 0 0 0 0.1 0"/>
<feBlend mode="normal" in2="effect1_innerShadow_2_1678" result="effect2_innerShadow_2_1678"/>
</filter>
</defs>
</svg>
