<svg width="350" height="350" viewBox="0 0 350 232.7441037171513" xmlns="http://www.w3.org/2000/svg">
<defs id="SvgjsDefs2266"></defs>


<g id="SvgjsG2267" featurekey="41S5F6-0" transform="matrix(1.2729437573584153,0,0,1.2729437573584153,47.70616812440637,-57.28985004163583)" 
fill="#6183e4">
<path xmlns="http://www.w3.org/2000/svg" d="M149.069,80.073c-0.354-0.873-0.741-1.737-1.143-2.591c7.788-14.021,9.177-24.166,3.966-29.378  c-5.21-5.21-15.354-3.823-29.374,3.964c-0.856-0.402-1.72-0.786-2.596-1.141c-3.159-1.281-6.461-2.259-9.813-2.908  c-6.644-1.286-13.578-1.285-20.218,0c-3.353,0.649-6.654,1.627-9.813,2.909c-3.219,1.305-6.318,2.937-9.214,4.848  c-2.97,1.961-5.764,4.243-8.304,6.782c-2.537,2.539-4.819,5.332-6.781,8.303c-1.913,2.898-3.544,5.998-4.848,9.213  c-1.28,3.157-2.259,6.458-2.909,9.813c-0.643,3.321-0.969,6.723-0.969,10.109s0.326,6.788,0.969,10.109  c0.65,3.355,1.629,6.656,2.909,9.813c0.355,0.875,0.738,1.739,1.141,2.595c-7.787,14.018-9.176,24.162-3.964,29.374  c2.074,2.074,4.927,3.106,8.494,3.106c5.746-0.001,13.347-2.678,22.525-7.99c0.006-0.003,0.011-0.007,0.017-0.01  c0.017-0.01,0.034-0.02,0.05-0.03c11.793-6.835,25.189-17.5,37.731-30.043c10.547-10.546,19.758-21.694,26.49-31.989  c0.709,2.049,1.278,4.154,1.69,6.283c0.558,2.886,0.841,5.84,0.841,8.78s-0.283,5.895-0.841,8.779  c-0.563,2.91-1.412,5.774-2.522,8.512c-1.13,2.786-2.544,5.474-4.203,7.987c-1.701,2.577-3.684,5.003-5.892,7.211  c-2.202,2.204-4.628,4.186-7.21,5.89c-2.511,1.659-5.197,3.072-7.986,4.203c-2.739,1.11-5.604,1.96-8.513,2.522  c-3.139,0.607-6.348,0.879-9.56,0.836c-1.909-0.073-3.526,1.506-3.56,3.438c-0.034,1.933,1.505,3.526,3.438,3.56  c0.3,0.006,0.601,0.008,0.901,0.008c3.387,0,6.788-0.326,10.109-0.969c3.354-0.649,6.655-1.628,9.813-2.908  c3.217-1.305,6.317-2.936,9.214-4.849c2.975-1.964,5.768-4.246,8.303-6.782c2.54-2.54,4.822-5.333,6.783-8.304  c1.914-2.899,3.545-5.999,4.848-9.213c1.28-3.156,2.259-6.457,2.909-9.813c0.643-3.322,0.968-6.724,0.968-10.108  s-0.325-6.786-0.968-10.109C151.328,86.532,150.349,83.231,149.069,80.073z M53.058,146.939c-1.889-1.889-1.448-7.831,3.136-17.211  c1.867,2.744,3.998,5.339,6.367,7.707c2.364,2.364,4.958,4.496,7.708,6.367C60.888,148.386,54.948,148.828,53.058,146.939z   M111.976,111.972c-11.55,11.55-23.787,21.412-34.672,27.974c-0.877-0.499-1.744-1.017-2.582-1.571  c-2.581-1.704-5.007-3.687-7.21-5.89c-2.208-2.208-4.189-4.635-5.891-7.21c-1.659-2.515-3.073-5.202-4.203-7.988  c-1.11-2.737-1.959-5.602-2.522-8.512c-0.559-2.884-0.842-5.838-0.842-8.779s0.283-5.896,0.842-8.779  c0.563-2.91,1.412-5.774,2.522-8.512c1.131-2.788,2.545-5.475,4.203-7.987c1.702-2.579,3.685-5.005,5.89-7.21  c2.207-2.206,4.633-4.188,7.211-5.89c2.51-1.657,5.197-3.072,7.987-4.203c2.74-1.111,5.604-1.96,8.513-2.523  c5.768-1.116,11.79-1.117,17.558,0c2.908,0.563,5.772,1.411,8.513,2.522c2.791,1.132,5.478,2.546,7.987,4.204  c1.938,1.279,3.801,2.725,5.535,4.295c1.433,1.297,3.646,1.188,4.943-0.244c1.298-1.433,1.188-3.646-0.244-4.944  c-1.816-1.646-3.76-3.165-5.778-4.537c9.379-4.583,15.317-5.023,17.207-3.135c2.227,2.227,1.237,10.068-5.993,22.563  C134.412,86.914,124.123,99.825,111.976,111.972z"></path></g>

<g id="SvgjsG2268" featurekey="RGwKHf-0" transform="matrix(3.3582807668603443,0,0,3.3582807668603443,-0.9403206204156007,139.64882034634172)" 
fill="#6183e4">
<path d="M8.52 16.9 l-0.98 0.02 l-2.8 0 l-0.98 -0.02 l-0.94 3.12 q-0.42 0.1 -1.19 0.1 t-1.25 -0.18 l-0.1 -0.14 l4.46 -13.46 q0.74 -0.1 1.6 -0.1 t1.5 0.12 l4.38 13.46 q-0.58 0.34 -1.39 0.34 t-1.16 -0.3 t-0.59 -1.14 z M4.42 14.780000000000001 l0.9 -0.02 l1.72 0 l0.84 0.02 l-0.6 -2.04 q-0.68 -2.28 -1.08 -3.88 l-0.12 0 q-0.18 0.86 -0.88 3.38 z M14.22 20 l0 -13.66 q0.5 -0.1 1.31 -0.1 t1.37 0.1 l0 13.66 q-0.56 0.1 -1.37 0.1 t-1.31 -0.1 z M29.180000000000003 17.72 l3.72 0 q0 0.6 -0.08 1.02 q-0.22 1.3 -1.74 1.3 l-4.86 0 q-0.72 0 -1.14 -0.43 t-0.42 -1.17 l0 -12.08 l0.14 -0.14 l1 0 q0.8 0 1.18 0.41 t0.38 1.31 l0 9.86 q0.86 -0.08 1.82 -0.08 z M41.879999999999995 16.9 l-0.98 0.02 l-2.8 0 l-0.98 -0.02 l-0.94 3.12 q-0.42 0.1 -1.19 0.1 t-1.25 -0.18 l-0.1 -0.14 l4.46 -13.46 q0.74 -0.1 1.6 -0.1 t1.5 0.12 l4.38 13.46 q-0.58 0.34 -1.39 0.34 t-1.16 -0.3 t-0.59 -1.14 z M37.78 14.780000000000001 l0.9 -0.02 l1.72 0 l0.84 0.02 l-0.6 -2.04 q-0.68 -2.28 -1.08 -3.88 l-0.12 0 q-0.18 0.86 -0.88 3.38 z M57.82 6.220000000000001 l0.14 0.14 l0 13.6 q-0.62 0.14 -1.56 0.14 t-1.64 -0.1 l-3.68 -7.74 q-0.8 -1.76 -1.2 -2.8 l-0.08 0.02 q0.22 2.82 0.22 5.44 l0 5.08 q-0.56 0.1 -1.27 0.1 t-1.23 -0.1 l0 -13.62 q0.58 -0.14 1.52 -0.14 t1.64 0.1 l3.64 7.74 l1.3 2.96 l0.06 -0.02 q-0.2 -2.9 -0.2 -5.48 l0 -3.66 q0 -0.9 0.34 -1.28 t1.14 -0.38 l0.86 0 z M69.72 19.1 q-0.6 0.52 -1.63 0.76 t-2.11 0.24 q-0.54 0 -1.67 -0.02 t-2.89 -0.06 l-0.14 -0.12 l0 -13.46 l0.14 -0.12 q1.16 -0.04 2.33 -0.06 t2.39 -0.02 q1.68 0 2.79 0.54 t1.77 1.49 t0.93 2.21 t0.27 2.7 q0 2 -0.45 3.45 t-1.73 2.47 z M68.62 9.96 q-0.6 -1.6 -2.48 -1.6 l-1.24 0 t-0.94 -0.02 l0 9.66 q0.38 -0.02 0.87 -0.02 t0.99 -0.02 t0.93 -0.08 t0.71 -0.2 q0.52 -0.28 0.85 -0.75 t0.51 -1.08 t0.25 -1.32 t0.07 -1.47 q0 -0.86 -0.11 -1.6 t-0.41 -1.5 z M74.5 20 l0 -13.66 q0.5 -0.1 1.31 -0.1 t1.37 0.1 l0 13.66 q-0.56 0.1 -1.37 0.1 t-1.31 -0.1 z M90.86000000000001 6.220000000000001 l0.14 0.14 l0 13.6 q-0.62 0.14 -1.56 0.14 t-1.64 -0.1 l-3.68 -7.74 q-0.8 -1.76 -1.2 -2.8 l-0.08 0.02 q0.22 2.82 0.22 5.44 l0 5.08 q-0.56 0.1 -1.27 0.1 t-1.23 -0.1 l0 -13.62 q0.58 -0.14 1.52 -0.14 t1.64 0.1 l3.64 7.74 l1.3 2.96 l0.06 -0.02 q-0.2 -2.9 -0.2 -5.48 l0 -3.66 q0 -0.9 0.34 -1.28 t1.14 -0.38 l0.86 0 z M99.56000000000002 12.52 l3.1 -0.02 q1.84 0 1.84 1.7 l0 5.24 q-2.38 0.84 -5.22 0.84 q-1.44 0 -2.53 -0.5 t-1.81 -1.42 t-1.08 -2.22 t-0.36 -2.88 q0 -1.84 0.52 -3.2 t1.38 -2.25 t1.99 -1.32 t2.37 -0.43 q2.56 0 4.7 1.44 q-0.06 0.58 -0.43 1.13 t-0.81 0.83 q-1.6 -1.14 -3.36 -1.14 q-3.6 0 -3.6 4.9 t3.58 4.9 q1.1 0 2.12 -0.24 l0 -1.78 q0 -0.44 0.01 -0.77 t0.03 -0.55 l-1.36 0 q-0.7 0 -0.99 -0.28 t-0.29 -0.9 q0 -0.52 0.2 -1.08 z"></path></g>

<g id="SvgjsG2269" featurekey="UxezYZ-0" transform="matrix(1.0140371977063296,0,0,1.0140371977063296,33.78315579792996,212.15914550911685)" 
fill="#6183e4">
<path d="M15.78 6 l0 14 l-1.7 0 l0 -10.28 l-4.92 10.28 l-1.36 0 l-4.9 -10.26 l0 10.26 l-1.7 0 l0 -14 l1.64 0 l5.66 11.72 l5.64 -11.72 l1.64 0 z M39.688 20 l-1.44 -3.3 l-7.48 0 l-1.44 3.3 l-1.76 0 l6.24 -14 l1.38 0 l6.26 14 l-1.76 0 z M31.387999999999998 15.3 l6.24 0 l-3.12 -7.12 z M62.396 20 l-5.42 -6.54 l-2.04 2.22 l0 4.32 l-1.7 0 l0 -14 l1.7 0 l0 7.5 l6.82 -7.5 l2.08 0 l-5.82 6.34 l6.34 7.66 l-1.96 0 z M77.90400000000001 18.44 l6.66 0 l0 1.56 l-7.06 0 l-1.26 0 l0 -14 l1.66 0 l6.48 0 l0 1.56 l-6.48 0 l0 4.64 l5.04 0 l0 1.52 l-5.04 0 l0 4.72 z M114.70000000000002 6 l0 14 l-1.66 0 l0 -14 l1.66 0 z M136.32800000000003 6 l0 1.56 l-3.88 0 l0 12.44 l-1.66 0 l0 -12.44 l-3.9 0 l0 -1.56 l9.44 0 z M169.00400000000002 5.76 c2.18 0 3.78 1.44 4.38 2.94 l-1.26 0.68 c-0.64 -1.28 -1.66 -2.12 -3.12 -2.12 c-1.54 0 -2.6 0.88 -2.6 2.1 c0 1.14 0.72 1.86 2.24 2.44 l1.02 0.38 c2.52 0.94 4.1 2.02 4.1 4.24 c0 2.4 -2.3 3.88 -4.68 3.88 s-4.34 -1.44 -4.88 -3.44 l1.34 -0.64 c0.48 1.48 1.74 2.56 3.54 2.56 c1.6 0 2.96 -0.92 2.96 -2.34 c0 -1.6 -1.12 -2.2 -2.78 -2.84 l-1.04 -0.4 c-2.12 -0.8 -3.48 -1.9 -3.48 -3.88 c0 -2.04 1.8 -3.56 4.26 -3.56 z M187.51200000000003 6 l0 14 l-1.66 0 l0 -14 l1.66 0 z M214.68 6 l0 14 l-1.7 0 l0 -10.28 l-4.92 10.28 l-1.36 0 l-4.9 -10.26 l0 10.26 l-1.7 0 l0 -14 l1.64 0 l5.66 11.72 l5.64 -11.72 l1.64 0 z M231.828 6 c3.14 0 4.96 1.92 4.96 4.52 s-1.82 4.44 -4.96 4.44 l-2.9 0 l0 5.04 l-1.66 0 l0 -14 l4.56 0 z M231.788 13.48 c2.02 0 3.34 -1.04 3.34 -2.96 c0 -1.94 -1.32 -2.96 -3.34 -2.96 l-2.86 0 l0 5.92 l2.86 0 z M250.53600000000003 18.44 l6.28 0 l0 1.56 l-7.94 0 l0 -14 l1.66 0 l0 12.44 z M270.66400000000004 18.44 l6.66 0 l0 1.56 l-7.06 0 l-1.26 0 l0 -14 l1.66 0 l6.48 0 l0 1.56 l-6.48 0 l0 4.64 l5.04 0 l0 1.52 l-5.04 0 l0 4.72 z"></path></g>
</svg>
