<svg width="22" height="22" viewBox="0 0 22 22" fill="none" xmlns="http://www.w3.org/2000/svg">
<path d="M1.88405 21.0827C1.75663 21.0823 1.63053 21.0569 1.51294 21.0078C1.39536 20.9587 1.2886 20.8869 1.19875 20.7965C1.10891 20.7062 1.03774 20.599 0.989314 20.4812C0.940886 20.3633 0.916146 20.2371 0.916508 20.1096V1.88906C0.916508 1.35143 1.34963 0.916016 1.88405 0.916016H20.1161C20.6501 0.916016 21.0832 1.35143 21.0832 1.88906V20.1096C21.0835 20.2371 21.0588 20.3633 21.0104 20.4812C20.9619 20.599 20.8908 20.7062 20.8009 20.7965C20.7111 20.8869 20.6043 20.9587 20.4867 21.0078C20.3692 21.0569 20.2431 21.0823 20.1156 21.0827H1.88359H1.88405Z" stroke="white" stroke-width="1.75" stroke-linecap="round" stroke-linejoin="round"/>
<path d="M14.1496 14.9198V20.8642H10.9008V14.9198V14.701H10.682H7.85742V11.7785H10.643H10.8591L10.8618 11.5624L10.9007 8.37287L10.9008 8.37287L10.9007 8.3681L10.8897 7.22502C10.8863 6.86775 10.9537 6.51335 11.0881 6.18229C11.2225 5.85123 11.4211 5.55008 11.6725 5.29624C11.924 5.0424 12.2232 4.8409 12.553 4.7034C12.8828 4.56589 13.2365 4.4951 13.5938 4.49512H13.5938H17.501V7.97912H15.4885C15.1334 7.97912 14.7929 8.12018 14.5418 8.37128C14.2907 8.62237 14.1496 8.96293 14.1496 9.31803V11.5593V11.778H14.3684H17.4667L17.0402 14.701H14.3684H14.1496V14.9198Z" fill="white" stroke="white" stroke-width="0.4375"/>
</svg>
